<mxfile host="app.diagrams.net" modified="2023-05-16T14:45:09.558Z" agent="Mozilla/5.0 (Windows NT 10.0; Win64; x64) AppleWebKit/537.36 (KHTML, like Gecko) Chrome/113.0.0.0 Safari/537.36" etag="9mOzSHPWx45pENlzp4t_" version="21.3.2" type="github" pages="2">
  <diagram name="第 1 页" id="xD0cJvN7K0_ihsJMUThP">
    <mxGraphModel dx="1000" dy="559" grid="1" gridSize="10" guides="1" tooltips="1" connect="1" arrows="1" fold="1" page="1" pageScale="1" pageWidth="827" pageHeight="1169" math="0" shadow="0">
      <root>
        <mxCell id="0" />
        <mxCell id="1" parent="0" />
        <mxCell id="oPIv2M0uY6rAt9aChv-6-1" value="" style="rounded=0;whiteSpace=wrap;html=1;" vertex="1" parent="1">
          <mxGeometry x="40" y="30" width="760" height="530" as="geometry" />
        </mxCell>
        <mxCell id="0j0aluEHsc_Gbc0z4OwQ-1" value="" style="rounded=0;whiteSpace=wrap;html=1;" vertex="1" parent="1">
          <mxGeometry x="40" y="30" width="380" height="20" as="geometry" />
        </mxCell>
        <mxCell id="0j0aluEHsc_Gbc0z4OwQ-2" value="" style="rounded=0;whiteSpace=wrap;html=1;" vertex="1" parent="1">
          <mxGeometry x="760" y="30" width="40" height="20" as="geometry" />
        </mxCell>
        <mxCell id="0j0aluEHsc_Gbc0z4OwQ-5" value="" style="rounded=0;whiteSpace=wrap;html=1;" vertex="1" parent="1">
          <mxGeometry x="680" y="30" width="40" height="20" as="geometry" />
        </mxCell>
        <mxCell id="0j0aluEHsc_Gbc0z4OwQ-6" value="" style="rounded=0;whiteSpace=wrap;html=1;" vertex="1" parent="1">
          <mxGeometry x="720" y="30" width="40" height="20" as="geometry" />
        </mxCell>
        <mxCell id="0j0aluEHsc_Gbc0z4OwQ-7" value="" style="rounded=0;whiteSpace=wrap;html=1;" vertex="1" parent="1">
          <mxGeometry x="180" y="50" width="620" height="30" as="geometry" />
        </mxCell>
        <mxCell id="0j0aluEHsc_Gbc0z4OwQ-9" value="" style="rounded=0;whiteSpace=wrap;html=1;" vertex="1" parent="1">
          <mxGeometry x="40" y="50" width="140" height="510" as="geometry" />
        </mxCell>
        <mxCell id="0j0aluEHsc_Gbc0z4OwQ-11" value="" style="rounded=0;whiteSpace=wrap;html=1;" vertex="1" parent="1">
          <mxGeometry x="180" y="80" width="30" height="480" as="geometry" />
        </mxCell>
      </root>
    </mxGraphModel>
  </diagram>
  <diagram id="gHoT7cBbTI-RMGtjQJy8" name="第 2 页">
    <mxGraphModel dx="1050" dy="587" grid="1" gridSize="10" guides="1" tooltips="1" connect="1" arrows="1" fold="1" page="1" pageScale="1" pageWidth="827" pageHeight="1169" math="0" shadow="0">
      <root>
        <mxCell id="0" />
        <mxCell id="1" parent="0" />
      </root>
    </mxGraphModel>
  </diagram>
</mxfile>
